# xmcd
# Copyright (C) 1995-1998 Ti Kan
#
# Track frame offsets:
#       150
#       15780
#       31236
#       43576
#       54239
#       68321
#       84860
#       133879
#
# Disc length: 1993 seconds
#
# Revision: 0
# Processed by: cddbd v1.5.2PL0 Copyright (c) Steve Scherf et al.
# Submitted via: CD-Import v1.0
#
DISCID=4f07c708
DTITLE=Larry and Lena - On The Sunny Side Of The Street
DYEAR=1900
DGENRE=
TTITLE0=Geh Vorbei
TTITLE1=Carolina In My Mind
TTITLE2=La Garota De Ipanema
TTITLE3=Long Haired Lover From Liverpool
TTITLE4=On The Sunny Side Of The Street
TTITLE5=Pornostar
TTITLE6=All I Want To Do...
TTITLE7=Secret Track
EXTD=
EXTT0=
EXTT1=
EXTT2=
EXTT3=
EXTT4=
EXTT5=
EXTT6=
EXTT7=
PLAYORDER=
